<svg xmlns="http://www.w3.org/2000/svg" viewBox="0 0 98 96" fill="currentColor">
  <path d="M49 0C21.9 0 0 22 0 49.2c0 21.8 14.2 40.2 33.9 46.7 2.5.5 3.4-1.1 3.4-2.4 0-1.2 0-5.1-.1-9.2-13.8 3-16.7-5.9-16.7-5.9-2.2-5.8-5.5-7.3-5.5-7.3-4.5-3.1.3-3 .3-3 5 .4 7.6 5.2 7.6 5.2 4.4 7.7 11.6 5.5 14.4 4.2.4-3.2 1.7-5.5 3.1-6.8-11-1.3-22.6-5.6-22.6-24.9 0-5.5 1.9-10 5.1-13.6-.5-1.3-2.2-6.4.5-13.4 0 0 4.2-1.4 13.8 5.2 4-.1 8.2-1.4 12.5-1.4s8.5 1.3 12.5 1.4c9.6-6.6 13.8-5.2 13.8-5.2 2.7 7 1 12.1.5 13.4 3.2 3.6 5.1 8.1 5.1 13.6 0 19.4-11.6 23.6-22.7 24.9 1.8 1.6 3.4 4.6 3.4 9.2 0 6.6-.1 11.9-.1 13.6 0 1.3.9 2.9 3.4 2.4C83.8 89.4 98 71 98 49.2 98 22 76.1 0 49 0Z"/>
</svg>
